<svg xmlns="http://www.w3.org/2000/svg" version="1.1" xmlns:xlink="http://www.w3.org/1999/xlink" xmlns:svgjs="http://svgjs.dev/svgjs" width="1500" height="1500" viewBox="0 0 1500 1500"><rect width="1500" height="1500" fill="#c8c7c3"></rect><g transform="matrix(0.6666666666666666,0,0,0.6666666666666666,250,250)"><svg viewBox="0 0 280 280" data-background-color="#c8c7c3" preserveAspectRatio="xMidYMid meet" height="1500" width="1500" xmlns="http://www.w3.org/2000/svg" xmlns:xlink="http://www.w3.org/1999/xlink"><g id="tight-bounds" transform="matrix(1,0,0,1,0,0)"><svg viewBox="0 0 280 280" height="280" width="280"><g><svg viewBox="0 0 280 280" height="280" width="280"><g><svg viewBox="0 0 280 280" height="280" width="280"><g id="textblocktransform"><svg viewBox="0 0 280 280" height="280" width="280" id="textblock"><g><svg viewBox="0 0 280 280" height="280" width="280"><g transform="matrix(1,0,0,1,93.0284083347516,74.00336708925556)"><svg viewBox="0 0 93.9431833304968 131.99326582148888" height="131.99326582148888" width="93.9431833304968"><g id="icon-0"><svg xmlns="http://www.w3.org/2000/svg" xmlns:xlink="http://www.w3.org/1999/xlink" version="1.1" x="0" y="0" viewBox="12.095 0.494 70.66700014297018 99.28946203433841" enable-background="new 0 0 100 100" xml:space="preserve" height="131.99326582148888" width="93.9431833304968" class="icon-jxe-0" data-fill-palette-color="accent" id="jxe-0"><g fill="#d9fe00" data-fill-palette-color="accent"><polygon points="26.559,16.413 26.559,27.164 23.303,27.164 23.303,16.413 12.095,16.413 12.095,42.085 37.768,42.085    37.768,16.413  " fill="#d9fe00" data-fill-palette-color="accent"></polygon><path d="M71.765 21.991L52.245 21.996C46.396 21.996 41.051 26.768 41.051 32.722V44.867H27.296C22.535 44.867 22.535 51.894 27.296 51.894H44.29L44.799 51.874C46.436 51.886 48.078 50.652 48.078 48.178V33.122H50.663L50.682 95.131A4.557 4.557 0 1 0 59.794 95.131L59.78 60.246H63.563V95.131A4.56 4.56 0 0 0 72.683 95.131L72.673 33.201H75.925V58.767C75.925 63.619 82.762 63.589 82.762 58.739V32.969C82.763 27.114 77.518 21.991 71.765 21.991" fill="#d9fe00" data-fill-palette-color="accent"></path></g><g fill="#d9fe00" data-fill-palette-color="accent"><g fill="#d9fe00" data-fill-palette-color="accent"><path d="M69.442 10.501V10.484H69.447L69.459 8.055C69.271 3.854 65.834 0.494 61.584 0.494 57.362 0.494 53.947 3.816 53.721 7.984H47.303V10.484z" fill="#d9fe00" data-fill-palette-color="accent"></path><path d="M53.693 12.55C53.782 16.83 57.259 20.275 61.562 20.275 65.828 20.275 69.287 16.879 69.425 12.642V12.625L69.433 12.55z" fill="#d9fe00" data-fill-palette-color="accent"></path></g></g></svg></g></svg></g><g id="text-0"><path d="M5.383 101.51l7.97-21.594 9.322 3.025-0.257 0.695c-3.641-0.124-6.207 0.01-7.696 0.403-1.49 0.393-2.523 1.37-3.099 2.932v0l-0.162 0.439 24.082 8.889 1.149-3.111 0.768 0.284-4.931 13.359-0.768-0.284 1.148-3.111-24.083-8.889-0.175 0.476c-0.576 1.562-0.406 2.997 0.511 4.305 0.917 1.309 2.76 3.057 5.529 5.243v0l-0.257 0.696z" fill="#d9fe00" data-fill-palette-color="primary"></path><path d="M41.375 68.976v0l0.667-0.914-2.427-1.771c-1.996-1.456-3.416-2.323-4.261-2.6-0.844-0.277-1.496-0.101-1.955 0.53v0c-0.276 0.378-0.425 0.793-0.448 1.243-0.023 0.45 0.139 0.802 0.486 1.054 0.347 0.253 0.745 0.447 1.194 0.581v0l0.575-0.788c0.564 0.154 1.156 0.457 1.776 0.909 0.62 0.452 0.964 1.106 1.032 1.961 0.069 0.855-0.188 1.682-0.77 2.48v0c-1.318 1.807-2.849 2.075-4.593 0.802v0c-2.585-1.885-2.276-5.024 0.927-9.415v0c1.824-2.501 3.51-3.919 5.058-4.254 1.548-0.335 3.457 0.324 5.727 1.979v0l6.399 4.667c1.093 0.797 1.861 0.891 2.306 0.281v0c0.521-0.714-0.255-1.924-2.327-3.628v0l0.376-0.45c1.788 1.433 2.806 2.707 3.055 3.822 0.249 1.115-0.132 2.366-1.143 3.753v0c-1.839 2.522-3.674 3.405-5.505 2.649v0c0.599 0.856 0.889 1.694 0.868 2.516-0.02 0.822-0.413 1.759-1.179 2.81v0c-2.268 3.11-4.674 3.738-7.217 1.883v0c-1.492-1.088-2.083-2.429-1.774-4.022 0.309-1.593 1.36-3.619 3.153-6.078zM44.333 73.064c1.093 0.797 1.839 1.253 2.238 1.367 0.4 0.114 0.718 0.009 0.955-0.317 0.238-0.326 0.192-0.826-0.137-1.5-0.329-0.674-0.966-1.357-1.912-2.047v0l-2.931-2.138-0.161 0.221c-0.95 1.303-0.469 2.652 1.443 4.046v0z" fill="#d9fe00" data-fill-palette-color="primary"></path><path d="M63.581 57.701l-0.358 0.3-4.488-5.351 0.359-0.3c1.972 1.299 3.689 1.93 5.151 1.892 1.462-0.038 2.85-0.608 4.166-1.711v0c2.033-1.705 2.506-3.205 1.419-4.5v0c-0.468-0.558-1.068-0.768-1.8-0.629v0c-1.145 0.213-2.425 0.71-3.841 1.49v0c-1.656 0.778-3.193 1.252-4.612 1.423v0c-1.698 0.202-3.198-0.475-4.502-2.029-1.304-1.554-1.866-3.196-1.686-4.925 0.179-1.729 1.066-3.262 2.661-4.599v0c0.977-0.819 2.175-1.434 3.596-1.844v0c0.512-0.158 0.868-0.321 1.067-0.488 0.199-0.167 0.31-0.379 0.333-0.635 0.023-0.256-0.025-0.658-0.144-1.204v0l0.329-0.276 3.836 4.574-0.359 0.301c-3.189-1.738-5.85-1.714-7.982 0.075v0c-0.937 0.785-1.496 1.535-1.679 2.248-0.183 0.713-0.065 1.319 0.353 1.817v0c0.251 0.299 0.517 0.475 0.798 0.527 0.282 0.052 0.496 0.085 0.642 0.098 0.147 0.013 0.347-0.011 0.602-0.072 0.255-0.061 0.463-0.116 0.624-0.167 0.161-0.05 0.4-0.14 0.716-0.269 0.316-0.129 0.542-0.234 0.678-0.315v0c1.639-0.798 2.862-1.323 3.669-1.574 0.807-0.252 1.63-0.425 2.469-0.518v0c1.731-0.162 3.303 0.599 4.715 2.284 1.412 1.684 1.984 3.377 1.714 5.079-0.269 1.703-1.271 3.281-3.005 4.735v0c-1.236 1.036-2.674 1.75-4.314 2.141v0c-0.373 0.041-0.629 0.12-0.769 0.238v0c-0.438 0.368-0.558 1.096-0.358 2.184z" fill="#d9fe00" data-fill-palette-color="primary"></path><path d="M81.976 36.961v0l-5.57-10.954-1.913 0.972-0.318-0.626 1.913-0.972-2.281-4.487 5.655-4.888 3.094 6.086 4.521-2.299 0.319 0.626-4.521 2.299 5.958 11.72c0.554 1.09 1.071 1.834 1.551 2.231 0.48 0.398 1.067 0.42 1.762 0.067 0.696-0.354 1.127-1.011 1.296-1.971 0.168-0.961 0.027-2.085-0.424-3.374v0l0.626-0.231c0.628 1.694 0.763 3.223 0.406 4.586-0.357 1.363-1.498 2.534-3.422 3.513-1.924 0.978-3.591 1.344-5 1.098-1.409-0.246-2.626-1.378-3.652-3.396z" fill="#d9fe00" data-fill-palette-color="primary"></path><path d="M101.861 15.138l-1.556 0.369-0.162-0.684 11.009-2.609 0.162 0.684-2.05 0.485 7.124 11.623 1.417-13.647-2.543 0.603-0.162-0.683 5.352-1.269 0.162 0.683-1.898 0.45-2.249 22.144c-0.271 2.577-0.813 4.463-1.626 5.658-0.813 1.195-1.966 1.969-3.459 2.323-1.493 0.354-2.751 0.291-3.774-0.188-1.022-0.479-1.66-1.251-1.911-2.314-0.252-1.063-0.165-1.939 0.259-2.627 0.425-0.689 1.093-1.141 2.004-1.357v0c2.101-0.498 3.358 0.126 3.772 1.873v0c0.09 0.38 0.122 0.853 0.096 1.42v0l-1.329 0.315c-0.065 0.63 0.024 1.117 0.266 1.461 0.242 0.344 0.628 0.452 1.16 0.326v0c1.038-0.246 1.84-0.977 2.407-2.194 0.567-1.217 0.968-2.963 1.204-5.237v0l0.278-2.552-3.341 0.792z" fill="#d9fe00" data-fill-palette-color="primary"></path><path d="M135.987 0l23 0.905 0.005 9.8-0.741-0.029c-1.008-3.502-1.928-5.9-2.762-7.195-0.834-1.295-2.083-1.976-3.746-2.041v0l-0.468-0.019-1.009 25.651 3.314 0.131-0.033 0.818-14.229-0.559 0.033-0.819 3.313 0.13 1.009-25.651-0.507-0.02c-1.663-0.065-2.976 0.54-3.936 1.817-0.961 1.277-2.054 3.57-3.277 6.88v0l-0.741-0.03z" fill="#d9fe00" data-fill-palette-color="primary"></path><path d="M185.657 17.864v0c-0.913-0.304-1.912 0.022-2.998 0.976-1.085 0.955-1.899 2.246-2.441 3.875v0l-3.301 9.921 2.628 0.875-0.221 0.666-11.55-3.843 0.222-0.667 2.036 0.678 5.42-16.288-2.036-0.677 0.222-0.667 8.921 2.969-1.183 3.554c0.74-1.152 1.679-1.915 2.818-2.29 1.139-0.375 2.288-0.369 3.448 0.016 1.16 0.386 1.995 1.027 2.506 1.924 0.51 0.896 0.566 1.943 0.168 3.14-0.398 1.197-0.976 2.026-1.732 2.486-0.756 0.461-1.696 0.505-2.819 0.131-1.123-0.374-1.826-1.019-2.111-1.936-0.284-0.917-0.011-1.964 0.819-3.14v0l1.333 0.444c1.036-1.053 0.986-1.769-0.149-2.147z" fill="#d9fe00" data-fill-palette-color="primary"></path><path d="M206.414 37.53v0l0.95 0.614 1.629-2.525c1.339-2.076 2.123-3.544 2.352-4.402 0.229-0.858 0.015-1.499-0.64-1.922v0c-0.393-0.254-0.816-0.379-1.267-0.376-0.451 0.003-0.793 0.185-1.025 0.546-0.233 0.361-0.403 0.769-0.512 1.225v0l0.82 0.529c-0.121 0.572-0.39 1.18-0.806 1.825-0.416 0.645-1.049 1.026-1.898 1.143-0.85 0.117-1.69-0.092-2.52-0.628v0c-1.88-1.213-2.234-2.726-1.064-4.539v0c1.734-2.688 4.885-2.559 9.453 0.387v0c2.601 1.678 4.113 3.28 4.536 4.807 0.423 1.527-0.126 3.47-1.649 5.831v0l-4.293 6.655c-0.733 1.137-0.783 1.909-0.149 2.318v0c0.743 0.479 1.906-0.364 3.49-2.531v0l0.471 0.35c-1.328 1.867-2.542 2.957-3.641 3.269-1.099 0.312-2.37 0.003-3.813-0.927v0c-2.623-1.692-3.609-3.473-2.959-5.345v0c-0.82 0.647-1.641 0.984-2.463 1.011-0.822 0.027-1.779-0.312-2.872-1.017v0c-3.235-2.087-3.999-4.452-2.293-7.097v0c1.001-1.552 2.306-2.219 3.914-2.001 1.608 0.217 3.691 1.151 6.249 2.8zM202.501 40.717c-0.733 1.137-1.145 1.907-1.237 2.313-0.091 0.405 0.032 0.717 0.372 0.935 0.339 0.219 0.835 0.144 1.49-0.222 0.655-0.367 1.299-1.042 1.933-2.026v0l1.967-3.049-0.229-0.148c-1.355-0.874-2.674-0.317-3.958 1.672v0z" fill="#d9fe00" data-fill-palette-color="primary"></path><path d="M237.654 47.236c-0.957-0.992-1.387-1.942-1.288-2.851 0.099-0.909 0.523-1.724 1.271-2.447 0.749-0.723 1.587-1.089 2.516-1.1 0.929-0.011 1.845 0.451 2.749 1.386 0.903 0.936 1.37 1.859 1.399 2.77 0.03 0.911-0.362 1.759-1.176 2.546-0.814 0.786-1.69 1.18-2.628 1.181-0.938 0.002-1.886-0.493-2.843-1.485zM231.12 45.355l0.506-0.488 6.638 6.877-12.856 12.41 1.517 1.572-0.505 0.487-8.047-8.336 0.505-0.488 1.49 1.544 12.351-11.922z" fill="#d9fe00" data-fill-palette-color="primary"></path><path d="M256.641 58.627l0.589-0.382 5.2 8.02-23.961 15.536 1.188 1.834-0.589 0.382-6.304-9.722 0.59-0.382 1.167 1.8 23.372-15.155z" fill="#d9fe00" data-fill-palette-color="primary"></path><path d="M243.82 94.437l-0.17-0.437 6.509-2.529 0.17 0.436c-1.864 1.45-3.013 2.873-3.447 4.27-0.434 1.396-0.34 2.895 0.281 4.494v0c0.961 2.473 2.229 3.403 3.805 2.791v0c0.679-0.264 1.07-0.765 1.174-1.502v0c0.166-1.153 0.107-2.525-0.177-4.117v0c-0.204-1.818-0.159-3.426 0.135-4.824v0c0.355-1.672 1.478-2.876 3.369-3.611 1.891-0.735 3.626-0.739 5.205-0.013 1.579 0.726 2.746 2.058 3.5 3.997v0c0.462 1.188 0.658 2.521 0.591 3.998v0c-0.015 0.536 0.025 0.925 0.118 1.168 0.094 0.242 0.259 0.416 0.495 0.519 0.236 0.104 0.631 0.187 1.186 0.251v0l0.155 0.4-5.564 2.162-0.169-0.437c2.671-2.461 3.503-4.988 2.495-7.582v0c-0.443-1.139-0.972-1.91-1.589-2.313-0.617-0.402-1.228-0.486-1.834-0.25v0c-0.364 0.141-0.616 0.337-0.756 0.587-0.14 0.25-0.24 0.442-0.299 0.577-0.059 0.135-0.101 0.332-0.126 0.593-0.024 0.261-0.039 0.475-0.042 0.644-0.004 0.169 0.004 0.424 0.025 0.764 0.021 0.341 0.047 0.589 0.079 0.744v0c0.228 1.809 0.332 3.136 0.312 3.98-0.02 0.845-0.122 1.68-0.303 2.504v0c-0.403 1.691-1.629 2.935-3.678 3.731-2.049 0.796-3.836 0.793-5.361-0.01-1.526-0.802-2.698-2.258-3.518-4.367v0c-0.584-1.503-0.798-3.094-0.641-4.774v0c0.081-0.366 0.088-0.634 0.023-0.803v0c-0.207-0.533-0.858-0.88-1.953-1.041z" fill="#d9fe00" data-fill-palette-color="primary"></path><path d="M6.473 141.391c0-6.173 5.004-11.177 11.177-11.178 6.173 0 11.177 5.004 11.177 11.178 0 6.173-5.004 11.177-11.177 11.177-6.173 0-11.177-5.004-11.177-11.177z" fill="#d9fe00" data-fill-palette-color="primary"></path><path d="M252.262 141.391c0-6.173 5.004-11.177 11.178-11.178 6.173 0 11.177 5.004 11.177 11.178 0 6.173-5.004 11.177-11.177 11.177-6.173 0-11.177-5.004-11.178-11.177z" fill="#d9fe00" data-fill-palette-color="primary"></path></g><g id="text-1"><path d="M40.418 168.331l8.702 23.081-9.672 4.094-0.282-0.748c3.037-2.451 5.02-4.36 5.951-5.725 0.931-1.365 1.082-2.882 0.453-4.549v0l-0.179-0.474-25.736 9.703 1.256 3.331-0.821 0.31-5.385-14.283 0.821-0.31 1.256 3.331 25.736-9.703-0.192-0.511c-0.629-1.667-1.772-2.709-3.431-3.126-1.664-0.415-4.385-0.536-8.162-0.362v0l-0.282-0.749z" fill="#d9fe00" data-fill-palette-color="secondary"></path><path d="M41.776 214.661v0l0.726 0.98 2.585-1.917c2.126-1.576 3.467-2.753 4.024-3.53 0.552-0.773 0.578-1.497 0.078-2.171v0c-0.298-0.402-0.674-0.686-1.128-0.851-0.454-0.165-0.864-0.112-1.23 0.159-0.371 0.275-0.698 0.619-0.983 1.032v0l0.627 0.847c-0.338 0.526-0.837 1.033-1.494 1.521-0.663 0.492-1.442 0.636-2.338 0.434-0.895-0.203-1.658-0.73-2.289-1.581v0c-1.429-1.927-1.214-3.58 0.645-4.959v0c2.753-2.041 5.864-0.722 9.334 3.958v0c1.975 2.664 2.886 4.842 2.733 6.534-0.148 1.688-1.432 3.429-3.85 5.223v0l-6.816 5.054c-1.165 0.864-1.507 1.619-1.027 2.267v0c0.565 0.763 2.05 0.358 4.454-1.215v0l0.341 0.525c-2.035 1.371-3.663 2.003-4.884 1.897-1.222-0.098-2.381-0.886-3.477-2.364v0c-1.991-2.685-2.307-4.842-0.949-6.472v0c-1.068 0.339-2.018 0.367-2.851 0.086-0.836-0.287-1.668-0.989-2.497-2.107v0c-2.455-3.311-2.328-5.972 0.383-7.982v0c1.588-1.177 3.148-1.355 4.681-0.532 1.527 0.826 3.261 2.548 5.202 5.164zM36.653 216.383c-1.165 0.864-1.868 1.482-2.109 1.856-0.245 0.368-0.238 0.727 0.022 1.076 0.256 0.345 0.78 0.457 1.574 0.339 0.794-0.119 1.695-0.553 2.703-1.3v0l3.126-2.318-0.174-0.235c-1.03-1.389-2.564-1.329-4.601 0.181v0z" fill="#d9fe00" data-fill-palette-color="secondary"></path><path d="M51.051 240.735l-0.391-0.323 4.77-5.763 0.391 0.323c-0.99 2.329-1.323 4.26-0.998 5.795 0.32 1.531 1.189 2.883 2.606 4.056v0c2.189 1.812 3.862 2.019 5.018 0.621v0c0.497-0.601 0.603-1.274 0.316-2.017v0c-0.447-1.163-1.216-2.416-2.308-3.759v0c-1.143-1.596-1.943-3.123-2.4-4.581v0c-0.54-1.755-0.117-3.469 1.268-5.142 1.385-1.673 3.007-2.584 4.868-2.732 1.857-0.143 3.644 0.497 5.363 1.919v0c1.052 0.871 1.931 2.016 2.638 3.437v0c0.265 0.506 0.505 0.848 0.72 1.026 0.215 0.178 0.46 0.254 0.735 0.229 0.275-0.026 0.688-0.153 1.239-0.38v0l0.353 0.292-4.073 4.922-0.391-0.324c1.217-3.694 0.676-6.492-1.623-8.395v0c-1.007-0.833-1.905-1.277-2.696-1.332-0.785-0.051-1.4 0.192-1.843 0.728v0c-0.265 0.321-0.397 0.633-0.396 0.938-0.003 0.31 0.003 0.542 0.017 0.698 0.015 0.156 0.078 0.36 0.189 0.612 0.112 0.262 0.213 0.472 0.302 0.63 0.08 0.159 0.219 0.393 0.42 0.702 0.2 0.309 0.352 0.528 0.457 0.656v0c1.16 1.576 1.951 2.762 2.372 3.559 0.422 0.805 0.764 1.641 1.026 2.508v0c0.501 1.791 0.002 3.593-1.499 5.406-1.501 1.813-3.173 2.742-5.016 2.787-1.847 0.05-3.705-0.699-5.573-2.245v0c-1.332-1.103-2.363-2.479-3.091-4.129v0c-0.115-0.391-0.248-0.649-0.399-0.772v0c-0.471-0.39-1.261-0.373-2.371 0.05z" fill="#d9fe00" data-fill-palette-color="secondary"></path><path d="M78.616 252.708v0l5.92-11.761-2.056-1.035 0.338-0.671 2.056 1.035 2.425-4.818 7.807 1.779-3.289 6.534 4.853 2.443-0.338 0.671-4.852-2.443-6.333 12.58c-0.591 1.173-0.904 2.093-0.941 2.758-0.037 0.666 0.317 1.186 1.06 1.56 0.749 0.377 1.59 0.334 2.522-0.128 0.941-0.466 1.824-1.302 2.65-2.51v0l0.596 0.399c-1.069 1.617-2.303 2.702-3.703 3.257-1.403 0.56-3.139 0.32-5.206-0.721-2.068-1.041-3.44-2.248-4.117-3.623-0.685-1.371-0.483-3.14 0.608-5.306z" fill="#d9fe00" data-fill-palette-color="secondary"></path><path d="M105.605 250.21l-1.671-0.392 0.172-0.731 11.802 2.77-0.171 0.732-2.194-0.515 1.263 14.552 7.891-12.403-2.725-0.64 0.171-0.731 5.735 1.346-0.171 0.731-2.032-0.477-12.755 20.149c-1.498 2.34-2.923 3.889-4.277 4.646-1.346 0.753-2.819 0.941-4.42 0.565-1.602-0.376-2.779-1.036-3.533-1.981-0.745-0.95-0.984-1.994-0.717-3.134 0.268-1.139 0.769-1.937 1.504-2.392 0.736-0.462 1.592-0.578 2.566-0.349v0c2.254 0.529 3.16 1.73 2.721 3.604v0c-0.095 0.405-0.292 0.873-0.59 1.404v0l-1.425-0.334c-0.362 0.576-0.509 1.086-0.439 1.53 0.068 0.45 0.387 0.742 0.956 0.875v0c1.108 0.26 2.225-0.059 3.351-0.956 1.132-0.896 2.354-2.376 3.667-4.439v0l1.485-2.316-3.579-0.841z" fill="#d9fe00" data-fill-palette-color="secondary"></path><path d="M134.087 245.436l24.645-1.039 0.861 10.467-0.799 0.034c-1.378-3.651-2.569-6.133-3.574-7.444-1.005-1.311-2.398-1.929-4.179-1.855v0l-0.506 0.022 1.159 27.48 3.556-0.15 0.037 0.877-15.25 0.643-0.037-0.877 3.557-0.15-1.159-27.48-0.546 0.023c-1.78 0.075-3.128 0.835-4.043 2.279-0.915 1.451-1.881 3.997-2.899 7.639v0l-0.799 0.034z" fill="#d9fe00" data-fill-palette-color="secondary"></path><path d="M180.998 248.506v0c-0.973 0.328-1.616 1.252-1.926 2.77-0.313 1.512-0.176 3.14 0.412 4.884v0l3.583 10.619 2.809-0.948 0.24 0.711-12.356 4.169-0.24-0.711 2.181-0.736-5.88-17.43-2.181 0.736-0.24-0.711 9.546-3.221 1.282 3.798c-0.114-1.457 0.196-2.715 0.93-3.773 0.734-1.058 1.721-1.795 2.959-2.213 1.238-0.418 2.367-0.408 3.386 0.031 1.011 0.434 1.733 1.292 2.166 2.574 0.432 1.282 0.474 2.362 0.126 3.241-0.346 0.885-1.12 1.531-2.322 1.936-1.201 0.405-2.22 0.306-3.054-0.297-0.839-0.595-1.282-1.664-1.329-3.206v0l1.423-0.48c0.204-1.572-0.301-2.153-1.515-1.743z" fill="#d9fe00" data-fill-palette-color="secondary"></path><path d="M206.825 245.201v0l1.023-0.664-1.754-2.699c-1.442-2.219-2.534-3.63-3.275-4.234-0.738-0.598-1.458-0.669-2.162-0.212v0c-0.42 0.273-0.726 0.631-0.919 1.074-0.193 0.443-0.165 0.856 0.083 1.237 0.252 0.387 0.575 0.735 0.97 1.045v0l0.883-0.574c0.504 0.37 0.98 0.899 1.426 1.586 0.45 0.692 0.546 1.479 0.289 2.359-0.257 0.881-0.83 1.61-1.719 2.188v0c-2.012 1.307-3.648 0.991-4.91-0.951v0c-1.867-2.873-0.358-5.897 4.527-9.071v0c2.781-1.807 5.011-2.582 6.69-2.324 1.676 0.252 3.334 1.641 4.975 4.165v0l4.624 7.115c0.79 1.216 1.523 1.604 2.199 1.164v0c0.796-0.517 0.484-2.024-0.937-4.52v0l0.545-0.308c1.243 2.116 1.774 3.779 1.591 4.991-0.173 1.214-1.031 2.322-2.574 3.324v0c-2.802 1.821-4.975 2.004-6.518 0.549v0c0.272 1.087 0.242 2.037-0.09 2.85-0.338 0.817-1.09 1.604-2.257 2.363v0c-3.457 2.246-6.104 1.955-7.943-0.875v0c-1.077-1.657-1.158-3.226-0.242-4.705 0.919-1.474 2.744-3.098 5.475-4.873zM208.228 250.42c0.79 1.216 1.364 1.956 1.721 2.219 0.352 0.267 0.711 0.282 1.077 0.046 0.36-0.234 0.505-0.751 0.434-1.551-0.07-0.8-0.447-1.726-1.13-2.778v0l-2.121-3.263-0.245 0.159c-1.45 0.942-1.484 2.477-0.103 4.604v0z" fill="#d9fe00" data-fill-palette-color="secondary"></path><path d="M219.879 218.202c-1.024 1.063-2.024 1.562-3 1.498-0.976-0.074-1.867-0.498-2.673-1.275-0.801-0.771-1.224-1.653-1.27-2.645-0.051-0.997 0.406-1.996 1.372-2.999 0.965-1.002 1.937-1.538 2.915-1.607 0.974-0.064 1.896 0.323 2.767 1.163 0.871 0.839 1.327 1.762 1.369 2.768 0.037 1.002-0.456 2.034-1.48 3.097zM218.121 225.271l-0.541-0.521 7.105-7.376 13.789 13.282 1.624-1.685 0.541 0.521-8.614 8.942-0.54-0.521 1.596-1.658-13.248-12.762z" fill="#d9fe00" data-fill-palette-color="secondary"></path><path d="M222.668 203.088l-0.628-0.411 5.606-8.571 25.605 16.748 1.281-1.959 0.629 0.411-6.796 10.391-0.629-0.411 1.26-1.926-24.977-16.337z" fill="#d9fe00" data-fill-palette-color="secondary"></path><path d="M261.884 196.955l-0.188 0.471-6.951-2.765 0.188-0.472c2.52 0.226 4.461-0.051 5.821-0.832 1.358-0.775 2.377-2.018 3.058-3.728v0c1.051-2.64 0.733-4.296-0.952-4.966v0c-0.725-0.288-1.397-0.182-2.017 0.321v0c-0.969 0.783-1.925 1.9-2.867 3.352v0c-1.167 1.579-2.374 2.81-3.621 3.692v0c-1.504 1.053-3.265 1.178-5.283 0.375-2.018-0.803-3.383-2.067-4.096-3.792-0.707-1.723-0.648-3.621 0.176-5.693v0c0.505-1.269 1.324-2.458 2.459-3.567v0c0.4-0.408 0.652-0.741 0.755-1.001 0.103-0.26 0.101-0.516-0.008-0.77-0.109-0.253-0.357-0.607-0.743-1.062v0l0.169-0.426 5.936 2.362-0.187 0.472c-3.889-0.022-6.386 1.354-7.489 4.126v0c-0.483 1.214-0.629 2.206-0.439 2.975 0.193 0.763 0.613 1.273 1.26 1.53v0c0.387 0.154 0.725 0.183 1.014 0.089 0.296-0.092 0.515-0.169 0.659-0.232 0.144-0.062 0.318-0.185 0.525-0.368 0.215-0.188 0.383-0.348 0.506-0.481 0.127-0.125 0.306-0.33 0.539-0.615 0.233-0.285 0.394-0.498 0.484-0.637v0c1.143-1.589 2.028-2.706 2.656-3.351 0.636-0.65 1.327-1.232 2.071-1.748v0c1.55-1.028 3.418-1.107 5.605-0.237 2.187 0.87 3.585 2.175 4.195 3.916 0.615 1.742 0.475 3.74-0.423 5.994v0c-0.639 1.607-1.632 3.011-2.977 4.21v0c-0.336 0.23-0.541 0.436-0.613 0.617v0c-0.226 0.568 0.033 1.315 0.778 2.241z" fill="#d9fe00" data-fill-palette-color="secondary"></path></g></svg></g></svg></g></svg></g></svg></g><defs></defs></svg><rect width="280" height="280" fill="none" stroke="none" visibility="hidden"></rect></g></svg></g></svg>